<svg width="80" height="80" viewBox="0 0 80 80" fill="none" xmlns="http://www.w3.org/2000/svg">
<path d="M40 80V40H1.74845e-06L0 80H40Z" fill="#6EDE85"/>
<path d="M40 40V1.74845e-06L1.74845e-06 0L0 40H40Z" fill="#54C46B"/>
<path d="M40 39.9995C50.6087 39.9995 60.7828 44.2138 68.2842 51.7153C75.7857 59.2167 80 69.3909 80 79.9995H40L40 39.9995Z" fill="#54C46B"/>
<path d="M59.2051 33.7432V5.74316C55.492 5.74316 51.9311 7.21816 49.3056 9.84368C46.6801 12.4692 45.2051 16.0301 45.2051 19.7432C45.2051 23.4562 46.6801 27.0172 49.3056 29.6427C51.9311 32.2682 55.492 33.7432 59.2051 33.7432Z" fill="#6EDE85"/>
<path d="M59.2051 33.7436V5.74365C62.9181 5.74365 66.4791 7.21865 69.1046 9.84417C71.7301 12.4697 73.2051 16.0306 73.2051 19.7436C73.2051 23.4567 71.7301 27.0176 69.1046 29.6432C66.4791 32.2686 62.9181 33.7436 59.2051 33.7436Z" fill="#6EDE85"/>
</svg>
