<svg width="416" height="83" viewBox="0 0 416 83" fill="none" xmlns="http://www.w3.org/2000/svg">
<path d="M40 80V40H1.74845e-06L0 80H40Z" fill="#54C46B"/>
<path d="M40 40V1.74845e-06L1.74845e-06 0L0 40H40Z" fill="#1A742D"/>
<path d="M40 39.9994C50.6087 39.9994 60.7828 44.2137 68.2842 51.7152C75.7857 59.2165 80 69.3908 80 79.9994H40L40 39.9994Z" fill="#1A742D"/>
<circle cx="59" cy="20" r="14" fill="#54C46B"/>
<path d="M97.1934 11.96H114.873V52.92H143.113V67H97.1934V11.96ZM149.993 19.8V9H165.913V19.8H149.993ZM149.993 67V24.76H165.913V67H149.993ZM203.913 23.8C209.62 23.8 214.02 25.6667 217.113 29.4C220.207 33.1333 221.753 38.6533 221.753 45.96C221.753 53.2133 220.207 58.7067 217.113 62.44C214.02 66.12 209.62 67.96 203.913 67.96C199.007 67.96 195.06 66.36 192.073 63.16V82.76H176.153V24.76H189.113L190.473 30.76C193.567 26.12 198.047 23.8 203.913 23.8ZM198.953 35.56C196.607 35.56 194.847 36.3867 193.673 38.04C192.5 39.6933 191.913 41.8533 191.913 44.52V47.16C191.913 49.8267 192.5 52.0133 193.673 53.72C194.847 55.3733 196.607 56.2 198.953 56.2C203.54 56.2 205.833 53.4533 205.833 47.96V43.72C205.833 38.28 203.54 35.56 198.953 35.56ZM253.673 11C260.713 11 266.499 12.44 271.033 15.32C275.566 18.1467 277.886 22.36 277.993 27.96V28.92H261.433V28.6C261.433 27 260.846 25.6667 259.673 24.6C258.499 23.5333 256.713 23 254.313 23C251.966 23 250.153 23.3467 248.873 24.04C247.646 24.7333 247.033 25.5867 247.033 26.6C247.033 28.04 247.886 29.1067 249.593 29.8C251.299 30.4933 254.046 31.2133 257.833 31.96C262.259 32.8667 265.886 33.8267 268.713 34.84C271.593 35.8 274.099 37.4 276.233 39.64C278.366 41.88 279.459 44.92 279.513 48.76C279.513 55.2667 277.299 60.0933 272.873 63.24C268.499 66.3867 262.633 67.96 255.273 67.96C246.686 67.96 239.993 66.52 235.193 63.64C230.446 60.76 228.073 55.6667 228.073 48.36H244.793C244.793 51.1333 245.513 53 246.953 53.96C248.393 54.8667 250.633 55.32 253.673 55.32C255.913 55.32 257.753 55.08 259.193 54.6C260.686 54.12 261.433 53.1333 261.433 51.64C261.433 50.3067 260.606 49.32 258.953 48.68C257.353 47.9867 254.713 47.2667 251.033 46.52C246.553 45.56 242.846 44.5733 239.913 43.56C236.979 42.4933 234.419 40.76 232.233 38.36C230.046 35.96 228.953 32.7067 228.953 28.6C228.953 22.5733 231.273 18.1467 235.913 15.32C240.606 12.44 246.526 11 253.673 11ZM317.807 67L316.767 60.6C315.114 62.8933 312.927 64.7067 310.207 66.04C307.541 67.32 304.714 67.96 301.727 67.96C296.821 67.96 293.141 66.6 290.687 63.88C288.234 61.16 287.007 57.24 287.007 52.12V24.76H302.927V50.2C302.927 52.0133 303.381 53.48 304.287 54.6C305.247 55.6667 306.581 56.2 308.287 56.2C310.261 56.2 311.861 55.56 313.087 54.28C314.314 53 314.927 51.4267 314.927 49.56V24.76H330.847V67H317.807ZM396.607 23.8C401.407 23.8 405.007 25.1867 407.407 27.96C409.807 30.68 411.007 34.5733 411.007 39.64V67H395.087V41.56C395.087 39.7467 394.633 38.3067 393.727 37.24C392.873 36.12 391.647 35.56 390.047 35.56C388.18 35.56 386.66 36.2 385.487 37.48C384.313 38.76 383.727 40.3333 383.727 42.2V67H367.807V41.56C367.807 39.7467 367.353 38.3067 366.447 37.24C365.593 36.12 364.367 35.56 362.767 35.56C360.9 35.56 359.38 36.2 358.207 37.48C357.033 38.76 356.447 40.3333 356.447 42.2V67H340.527V24.76H353.567L354.607 31.08C356.207 28.84 358.313 27.08 360.927 25.8C363.593 24.4667 366.393 23.8 369.327 23.8C375.673 23.8 379.94 26.2267 382.127 31.08C383.78 28.84 385.887 27.08 388.447 25.8C391.06 24.4667 393.78 23.8 396.607 23.8Z" fill="white"/>
</svg>
